<?xml version="1.0" standalone="no"?>
<!DOCTYPE svg PUBLIC "-//W3C//DTD SVG 20010904//EN"
 "http://www.w3.org/TR/2001/REC-SVG-20010904/DTD/svg10.dtd">
<svg version="1.0" xmlns="http://www.w3.org/2000/svg"
 width="100.000000pt" height="100.000000pt" viewBox="0 0 100.000000 100.000000"
 preserveAspectRatio="xMidYMid meet">
<metadata>
Created by potrace 1.14, written by Peter Selinger 2001-2017
</metadata>
<g transform="translate(0.000000,100.000000) scale(0.100000,-0.100000)"
fill="#000000" stroke="none">
<path d="M355 826 c-33 -27 -42 -101 -11 -101 14 0 20 8 23 30 2 17 8 34 14
40 13 13 227 15 238 1 5 -6 11 -24 13 -40 3 -32 37 -47 39 -18 3 42 -4 68 -22
87 -17 18 -33 20 -144 21 -111 1 -126 -1 -150 -20z"/>
<path d="M141 698 c-27 -10 -30 -24 -30 -176 -1 -175 -1 -175 126 -174 154 0
143 -3 143 37 l0 35 120 0 120 0 0 -37 0 -38 117 1 c155 2 151 -3 152 182 0
103 -3 144 -13 157 -13 18 -34 19 -365 20 -194 0 -360 -3 -370 -7z"/>
<path d="M412 333 l3 -58 88 0 87 -1 0 58 0 58 -90 0 -91 0 3 -57z"/>
<path d="M866 328 c-11 -6 -65 -12 -120 -13 -56 -1 -106 -3 -113 -4 -6 0 -13
-16 -15 -33 l-3 -33 -115 0 -115 0 -5 35 -5 35 -100 1 c-55 0 -115 4 -132 8
l-33 8 0 -76 c0 -121 -27 -113 390 -113 419 0 390 -9 390 117 0 44 -1 80 -2
80 -2 0 -12 -6 -22 -12z"/>
</g>
</svg>
